<?xml version="1.0" encoding="UTF-8" standalone="no"?>
<!-- Created with Inkscape (http://www.inkscape.org/) -->

<svg
   width="48"
   height="48"
   viewBox="0 0 12.7 12.7"
   version="1.1"
   id="svg1"
   xml:space="preserve"
   inkscape:version="1.3.2 (091e20e, 2023-11-25, custom)"
   sodipodi:docname="favicon.svg"
   xmlns:inkscape="http://www.inkscape.org/namespaces/inkscape"
   xmlns:sodipodi="http://sodipodi.sourceforge.net/DTD/sodipodi-0.dtd"
   xmlns="http://www.w3.org/2000/svg"
   xmlns:svg="http://www.w3.org/2000/svg"><sodipodi:namedview
     id="namedview1"
     pagecolor="#505050"
     bordercolor="#ffffff"
     borderopacity="1"
     inkscape:showpageshadow="0"
     inkscape:pageopacity="0"
     inkscape:pagecheckerboard="1"
     inkscape:deskcolor="#505050"
     inkscape:document-units="mm"
     inkscape:zoom="7.9352051"
     inkscape:cx="24.006941"
     inkscape:cy="22.620713"
     inkscape:window-width="1920"
     inkscape:window-height="991"
     inkscape:window-x="-9"
     inkscape:window-y="-9"
     inkscape:window-maximized="1"
     inkscape:current-layer="layer1" /><defs
     id="defs1" /><g
     inkscape:label="Capa 1"
     inkscape:groupmode="layer"
     id="layer1"><path
       style="fill:#ffcc00"
       d="M 1.275449,12.64557 C 0.83185248,12.528892 0.45834633,12.230321 0.2647846,11.837671 0.07351717,11.449675 0.08607633,11.832258 0.08558846,6.3789241 0.08516011,1.5908587 0.08621677,1.4817673 0.13486462,1.2915561 0.25016424,0.84073888 0.5465693,0.46675579 0.94375093,0.27096016 1.3317621,0.07968523 0.95058616,0.09220176 6.3876233,0.09220176 c 5.3349317,0 5.0543157,-0.0076354 5.3801047,0.14639008 0.464168,0.21944846 0.779054,0.6189562 0.88247,1.11962266 0.03559,0.1723233 0.03985,0.7174454 0.03946,5.053429 -4.88e-4,5.4208575 0.01211,5.0423445 -0.180627,5.4252765 -0.182201,0.361993 -0.490907,0.627164 -0.90713,0.779204 l -0.184905,0.06754 -4.9789529,0.0051 c -4.8343059,0.005 -4.9842884,0.0037 -5.1625941,-0.0432 z m 10.154152,-0.809192 c 0.179374,-0.0851 0.318252,-0.223408 0.400568,-0.398923 l 0.06582,-0.140332 V 6.3937989 1.4904752 L 11.830659,1.3518208 C 11.74849,1.1774152 11.607998,1.0373047 11.429601,0.95185303 L 11.290947,0.88543784 H 6.3876233 1.4842996 L 1.3419152,0.95219265 C 1.1684381,1.0335248 1.0238914,1.1735243 0.94122335,1.3402795 l -0.0619611,0.1249858 v 4.9164587 4.916459 l 0.0828121,0.168215 c 0.10841265,0.220217 0.28908855,0.364372 0.52770845,0.42104 0.054957,0.01305 2.1513936,0.02097 4.9482603,0.01868 l 4.8529039,-0.004 z M 5.0388942,9.1127775 C 4.9603738,9.0701591 2.5317663,6.641814 2.4910591,6.5652176 c -0.046405,-0.087318 -0.046405,-0.2555199 0,-0.3428374 0.043696,-0.08222 2.47419,-2.509038 2.5524802,-2.5486198 0.077623,-0.039245 0.2495368,-0.034575 0.3339374,0.00907 0.1816876,0.093954 0.2652834,0.304675 0.1916113,0.482996 -0.028612,0.069255 -0.35048,0.4081291 -1.1044968,1.1628548 L 3.4004738,6.3937989 4.4645912,7.4589167 c 0.7540168,0.7547257 1.0758846,1.0936 1.1044968,1.1628548 0.073672,0.1783211 -0.00992,0.3890418 -0.1916113,0.4829961 -0.083258,0.043055 -0.2660489,0.047379 -0.3385825,0.00801 z M 7.3811779,9.0940064 C 7.2759527,9.0298407 7.1989469,8.9271675 7.1799,8.825639 7.1440367,8.6344707 7.1624258,8.612234 8.2997155,7.4715217 L 9.3742048,6.3937989 8.2997155,5.3160761 C 7.1607631,4.173696 7.1439893,4.1533793 7.1802406,3.9601434 7.1991164,3.859527 7.296738,3.7350758 7.3977699,3.6828302 c 0.084401,-0.043645 0.256314,-0.048314 0.3339374,-0.00907 0.07829,0.039582 2.5087847,2.4664001 2.5524807,2.5486198 0.0199,0.037441 0.03618,0.1145798 0.03618,0.1714187 0,0.056839 -0.01628,0.1339773 -0.03618,0.1714187 -0.0437,0.08222 -2.4741905,2.509038 -2.5524807,2.5486198 -0.085484,0.043219 -0.2636656,0.033138 -0.3505294,-0.019831 z"
       id="path1" /></g></svg>
